<svg width="292" height="82" viewBox="0 0 292 82" fill="none" xmlns="http://www.w3.org/2000/svg">
<g filter="url(#filter0_d_17_98)">
<path style="mix-blend-mode:plus-lighter" d="M104.33 56.3166C103.137 56.3166 102.108 56.0542 101.241 55.5294C100.374 55.0047 99.7067 54.2575 99.239 53.2879C98.7713 52.3183 98.5375 51.1661 98.5375 49.8315V49.8143C98.5375 48.4797 98.7713 47.3304 99.239 46.3665C99.7067 45.3968 100.371 44.6497 101.232 44.1249C102.099 43.6002 103.132 43.3378 104.33 43.3378C105.305 43.3378 106.18 43.5317 106.956 43.9196C107.738 44.3017 108.368 44.8293 108.847 45.5024C109.326 46.1754 109.605 46.9454 109.685 47.8124V47.915H107.179L107.17 47.8637C107.084 47.396 106.91 46.9882 106.648 46.6402C106.386 46.2923 106.055 46.0214 105.656 45.8275C105.262 45.6278 104.82 45.528 104.33 45.528C103.685 45.528 103.126 45.702 102.653 46.0499C102.179 46.3978 101.814 46.8912 101.558 47.53C101.307 48.1688 101.181 48.9303 101.181 49.8143V49.8315C101.181 50.7098 101.307 51.4713 101.558 52.1158C101.814 52.7603 102.179 53.2565 102.653 53.6044C103.126 53.9524 103.688 54.1263 104.338 54.1263C104.834 54.1263 105.276 54.0379 105.664 53.8611C106.058 53.6786 106.383 53.4248 106.64 53.0997C106.902 52.7689 107.076 52.381 107.161 51.9361L107.179 51.8677H109.694V51.9618C109.603 52.823 109.32 53.5816 108.847 54.2376C108.373 54.8878 107.752 55.3983 106.982 55.769C106.212 56.134 105.328 56.3166 104.33 56.3166ZM114.93 56.1968C114.228 56.1968 113.641 56.0599 113.167 55.7861C112.694 55.5123 112.338 55.1131 112.098 54.5883C111.858 54.0579 111.739 53.4191 111.739 52.6719V46.5889H114.237V52.1072C114.237 52.7689 114.368 53.2708 114.63 53.613C114.899 53.9552 115.326 54.1263 115.914 54.1263C116.222 54.1263 116.493 54.0779 116.727 53.9809C116.966 53.8782 117.166 53.7356 117.325 53.5531C117.491 53.3706 117.613 53.151 117.693 52.8943C117.773 52.6377 117.813 52.3496 117.813 52.0302V46.5889H120.311V56H117.813V54.5456H117.668C117.525 54.8878 117.325 55.1844 117.069 55.4353C116.812 55.6806 116.504 55.8688 116.145 56C115.785 56.1312 115.38 56.1968 114.93 56.1968ZM126.531 56.1968C125.681 56.1968 124.954 56.0799 124.35 55.846C123.751 55.6064 123.28 55.2785 122.938 54.8621C122.601 54.4457 122.402 53.9695 122.339 53.4333V53.3906H124.794L124.803 53.4333C124.906 53.7242 125.1 53.9638 125.385 54.152C125.676 54.3402 126.066 54.4343 126.557 54.4343C126.882 54.4343 127.164 54.3916 127.404 54.306C127.643 54.2204 127.829 54.1007 127.96 53.9467C128.097 53.7927 128.165 53.6102 128.165 53.3991V53.3906C128.165 53.1339 128.063 52.9229 127.857 52.7575C127.652 52.592 127.31 52.458 126.831 52.3553L125.265 52.0217C124.666 51.8905 124.167 51.7051 123.768 51.4656C123.368 51.226 123.069 50.9294 122.869 50.5758C122.675 50.2165 122.579 49.8058 122.579 49.3438V49.3352C122.579 48.7421 122.741 48.2259 123.066 47.7867C123.391 47.3418 123.848 46.9967 124.435 46.7515C125.028 46.5062 125.716 46.3836 126.497 46.3836C127.324 46.3836 128.026 46.5091 128.602 46.76C129.178 47.0053 129.62 47.3361 129.928 47.7525C130.241 48.1688 130.413 48.6308 130.441 49.1385V49.1641H128.123L128.114 49.1299C128.051 48.8675 127.883 48.6394 127.609 48.4455C127.335 48.2458 126.965 48.146 126.497 48.146C126.206 48.146 125.949 48.1888 125.727 48.2744C125.505 48.3599 125.331 48.4797 125.205 48.6337C125.08 48.7877 125.017 48.9702 125.017 49.1812V49.1898C125.017 49.3552 125.06 49.5006 125.145 49.6261C125.231 49.7516 125.37 49.86 125.564 49.9512C125.758 50.0425 126.015 50.1252 126.334 50.1993L127.9 50.533C128.847 50.7326 129.543 51.0378 129.988 51.4485C130.438 51.8591 130.664 52.4124 130.664 53.1082V53.1253C130.664 53.7413 130.487 54.2832 130.133 54.7509C129.779 55.2129 129.292 55.5694 128.67 55.8203C128.054 56.0713 127.341 56.1968 126.531 56.1968ZM136.567 56.0342C135.426 56.0342 134.605 55.8346 134.103 55.4353C133.601 55.0361 133.35 54.3773 133.35 53.459V48.4711H131.904V46.5889H133.35V44.3388H135.874V46.5889H137.816V48.4711H135.874V52.8943C135.874 53.3164 135.971 53.6273 136.165 53.8269C136.359 54.0208 136.664 54.1178 137.08 54.1178C137.24 54.1178 137.371 54.1149 137.474 54.1092C137.582 54.0978 137.696 54.0864 137.816 54.075V55.9316C137.662 55.9601 137.477 55.9829 137.26 56C137.043 56.0228 136.812 56.0342 136.567 56.0342ZM143.976 56.1968C143.018 56.1968 142.191 56.0029 141.495 55.615C140.799 55.2214 140.266 54.6596 139.895 53.9296C139.524 53.1938 139.339 52.3154 139.339 51.2945V51.2773C139.339 50.2678 139.527 49.398 139.903 48.6679C140.28 47.9378 140.813 47.376 141.503 46.9825C142.199 46.5832 143.023 46.3836 143.976 46.3836C144.94 46.3836 145.767 46.5804 146.457 46.9739C147.153 47.3675 147.686 47.9293 148.057 48.6593C148.433 49.3894 148.622 50.2621 148.622 51.2773V51.2945C148.622 52.3154 148.436 53.1938 148.065 53.9296C147.695 54.6596 147.161 55.2214 146.466 55.615C145.775 56.0029 144.946 56.1968 143.976 56.1968ZM143.976 54.2376C144.421 54.2376 144.797 54.1235 145.105 53.8953C145.419 53.6615 145.656 53.325 145.815 52.8858C145.981 52.4466 146.063 51.919 146.063 51.303V51.2859C146.063 50.6699 145.981 50.1452 145.815 49.7117C145.65 49.2725 145.413 48.936 145.105 48.7021C144.797 48.4626 144.421 48.3428 143.976 48.3428C143.542 48.3428 143.169 48.4626 142.855 48.7021C142.547 48.936 142.31 49.2725 142.145 49.7117C141.98 50.1452 141.897 50.6699 141.897 51.2859V51.303C141.897 51.919 141.977 52.4466 142.136 52.8858C142.302 53.325 142.539 53.6615 142.847 53.8953C143.16 54.1235 143.537 54.2376 143.976 54.2376ZM150.649 56V46.5889H153.147V48.0605H153.301C153.495 47.53 153.823 47.1194 154.285 46.8285C154.747 46.5319 155.286 46.3836 155.902 46.3836C156.33 46.3836 156.718 46.4549 157.066 46.5975C157.414 46.7344 157.71 46.9311 157.956 47.1878C158.201 47.4445 158.389 47.7582 158.52 48.1289H158.666C158.814 47.7753 159.025 47.4701 159.299 47.2135C159.578 46.9511 159.906 46.7486 160.283 46.606C160.665 46.4577 161.073 46.3836 161.506 46.3836C162.134 46.3836 162.675 46.5119 163.132 46.7686C163.588 47.0252 163.939 47.3903 164.184 47.8637C164.435 48.3314 164.561 48.8903 164.561 49.5406V56H162.062V50.1651C162.062 49.783 162.005 49.4664 161.891 49.2155C161.777 48.9645 161.603 48.7763 161.369 48.6508C161.141 48.5196 160.85 48.454 160.497 48.454C160.166 48.454 159.875 48.531 159.624 48.685C159.379 48.839 159.188 49.0472 159.051 49.3096C158.914 49.5719 158.845 49.8742 158.845 50.2165V56H156.347V50.0539C156.347 49.7174 156.284 49.4293 156.159 49.1898C156.039 48.9502 155.862 48.7677 155.629 48.6422C155.4 48.5168 155.124 48.454 154.799 48.454C154.479 48.454 154.194 48.5367 153.943 48.7021C153.692 48.8618 153.495 49.0814 153.353 49.3609C153.216 49.6404 153.147 49.9598 153.147 50.3191V56H150.649ZM166.973 56V46.5889H169.471V56H166.973ZM168.222 45.143C167.84 45.143 167.509 45.009 167.23 44.7409C166.956 44.4728 166.819 44.1477 166.819 43.7656C166.819 43.3777 166.956 43.0498 167.23 42.7817C167.509 42.5079 167.84 42.371 168.222 42.371C168.61 42.371 168.941 42.5079 169.215 42.7817C169.494 43.0498 169.634 43.3777 169.634 43.7656C169.634 44.1477 169.494 44.4728 169.215 44.7409C168.941 45.009 168.61 45.143 168.222 45.143ZM171.747 56V54.5712L176.547 48.6166V48.4711H171.824V46.5889H179.499V48.1802L174.973 53.9638V54.1178H179.61V56H171.747ZM184.444 56.1454C183.85 56.1454 183.32 56.0314 182.852 55.8032C182.39 55.5694 182.028 55.2414 181.766 54.8193C181.503 54.3916 181.372 53.8925 181.372 53.3221V53.305C181.372 52.7403 181.512 52.2555 181.791 51.8506C182.077 51.4456 182.49 51.129 183.032 50.9009C183.579 50.667 184.244 50.5273 185.025 50.4817L188.533 50.2763V51.7992L185.393 51.996C184.863 52.0302 184.466 52.1472 184.204 52.3468C183.942 52.5407 183.81 52.8116 183.81 53.1596V53.1767C183.81 53.5303 183.947 53.8098 184.221 54.0151C184.495 54.2204 184.849 54.3231 185.282 54.3231C185.67 54.3231 186.015 54.2461 186.317 54.0921C186.62 53.9381 186.856 53.7299 187.027 53.4676C187.204 53.2052 187.293 52.9086 187.293 52.5778V49.5748C187.293 49.1641 187.159 48.8504 186.89 48.6337C186.622 48.4112 186.232 48.3 185.718 48.3C185.268 48.3 184.9 48.377 184.615 48.531C184.335 48.685 184.147 48.9018 184.05 49.1812L184.033 49.2155H181.723L181.731 49.1299C181.8 48.5766 182.008 48.0947 182.356 47.684C182.71 47.2734 183.183 46.9539 183.776 46.7258C184.375 46.4977 185.068 46.3836 185.855 46.3836C186.688 46.3836 187.395 46.5119 187.977 46.7686C188.559 47.0195 189.001 47.3846 189.303 47.8637C189.611 48.3371 189.765 48.9075 189.765 49.5748V56H187.293V54.7509H187.147C186.987 55.0418 186.774 55.2927 186.505 55.5038C186.243 55.7091 185.935 55.8688 185.581 55.9829C185.234 56.0913 184.854 56.1454 184.444 56.1454ZM196.096 56.0342C194.956 56.0342 194.134 55.8346 193.632 55.4353C193.13 55.0361 192.879 54.3773 192.879 53.459V48.4711H191.433V46.5889H192.879V44.3388H195.403V46.5889H197.345V48.4711H195.403V52.8943C195.403 53.3164 195.5 53.6273 195.694 53.8269C195.888 54.0208 196.193 54.1178 196.61 54.1178C196.769 54.1178 196.9 54.1149 197.003 54.1092C197.112 54.0978 197.226 54.0864 197.345 54.075V55.9316C197.191 55.9601 197.006 55.9829 196.789 56C196.573 56.0228 196.342 56.0342 196.096 56.0342ZM199.416 56V46.5889H201.914V56H199.416ZM200.665 45.143C200.283 45.143 199.952 45.009 199.672 44.7409C199.399 44.4728 199.262 44.1477 199.262 43.7656C199.262 43.3777 199.399 43.0498 199.672 42.7817C199.952 42.5079 200.283 42.371 200.665 42.371C201.053 42.371 201.384 42.5079 201.657 42.7817C201.937 43.0498 202.077 43.3777 202.077 43.7656C202.077 44.1477 201.937 44.4728 201.657 44.7409C201.384 45.009 201.053 45.143 200.665 45.143ZM208.587 56.1968C207.629 56.1968 206.802 56.0029 206.106 55.615C205.41 55.2214 204.877 54.6596 204.506 53.9296C204.136 53.1938 203.95 52.3154 203.95 51.2945V51.2773C203.95 50.2678 204.138 49.398 204.515 48.6679C204.891 47.9378 205.425 47.376 206.115 46.9825C206.811 46.5832 207.635 46.3836 208.587 46.3836C209.551 46.3836 210.378 46.5804 211.068 46.9739C211.764 47.3675 212.298 47.9293 212.668 48.6593C213.045 49.3894 213.233 50.2621 213.233 51.2773V51.2945C213.233 52.3154 213.048 53.1938 212.677 53.9296C212.306 54.6596 211.773 55.2214 211.077 55.615C210.387 56.0029 209.557 56.1968 208.587 56.1968ZM208.587 54.2376C209.032 54.2376 209.409 54.1235 209.717 53.8953C210.03 53.6615 210.267 53.325 210.427 52.8858C210.592 52.4466 210.675 51.919 210.675 51.303V51.2859C210.675 50.6699 210.592 50.1452 210.427 49.7117C210.261 49.2725 210.025 48.936 209.717 48.7021C209.409 48.4626 209.032 48.3428 208.587 48.3428C208.154 48.3428 207.78 48.4626 207.467 48.7021C207.159 48.936 206.922 49.2725 206.756 49.7117C206.591 50.1452 206.508 50.6699 206.508 51.2859V51.303C206.508 51.919 206.588 52.4466 206.748 52.8858C206.913 53.325 207.15 53.6615 207.458 53.8953C207.772 54.1235 208.148 54.2376 208.587 54.2376ZM215.261 56V46.5889H217.759V48.0434H217.913C218.13 47.53 218.466 47.1251 218.922 46.8285C219.379 46.5319 219.943 46.3836 220.616 46.3836C221.666 46.3836 222.464 46.6916 223.012 47.3076C223.56 47.9179 223.833 48.7848 223.833 49.9085V56H221.335V50.4817C221.335 49.8143 221.195 49.3096 220.916 48.9673C220.636 48.6251 220.203 48.454 219.615 48.454C219.228 48.454 218.894 48.5424 218.614 48.7192C218.341 48.8903 218.13 49.1328 217.981 49.4465C217.833 49.7602 217.759 50.1309 217.759 50.5587V56H215.261ZM233.501 56L230.224 43.6544H232.911L234.836 52.4837H234.973L237.223 43.6544H239.413L241.706 52.4837H241.834L243.742 43.6544H246.411L243.143 56H240.713L238.386 47.684H238.249L235.939 56H233.501ZM248.422 56V46.5889H250.92V56H248.422ZM249.671 45.143C249.289 45.143 248.958 45.009 248.679 44.7409C248.405 44.4728 248.268 44.1477 248.268 43.7656C248.268 43.3777 248.405 43.0498 248.679 42.7817C248.958 42.5079 249.289 42.371 249.671 42.371C250.059 42.371 250.39 42.5079 250.663 42.7817C250.943 43.0498 251.083 43.3777 251.083 43.7656C251.083 44.1477 250.943 44.4728 250.663 44.7409C250.39 45.009 250.059 45.143 249.671 45.143ZM253.196 56V54.5712L257.996 48.6166V48.4711H253.273V46.5889H260.947V48.1802L256.421 53.9638V54.1178H261.058V56H253.196ZM265.892 56.1454C265.299 56.1454 264.769 56.0314 264.301 55.8032C263.839 55.5694 263.477 55.2414 263.214 54.8193C262.952 54.3916 262.821 53.8925 262.821 53.3221V53.305C262.821 52.7403 262.961 52.2555 263.24 51.8506C263.525 51.4456 263.939 51.129 264.481 50.9009C265.028 50.667 265.693 50.5273 266.474 50.4817L269.982 50.2763V51.7992L266.842 51.996C266.312 52.0302 265.915 52.1472 265.653 52.3468C265.39 52.5407 265.259 52.8116 265.259 53.1596V53.1767C265.259 53.5303 265.396 53.8098 265.67 54.0151C265.944 54.2204 266.297 54.3231 266.731 54.3231C267.119 54.3231 267.464 54.2461 267.766 54.0921C268.068 53.9381 268.305 53.7299 268.476 53.4676C268.653 53.2052 268.741 52.9086 268.741 52.5778V49.5748C268.741 49.1641 268.607 48.8504 268.339 48.6337C268.071 48.4112 267.68 48.3 267.167 48.3C266.716 48.3 266.349 48.377 266.063 48.531C265.784 48.685 265.596 48.9018 265.499 49.1812L265.482 49.2155H263.172L263.18 49.1299C263.249 48.5766 263.457 48.0947 263.805 47.684C264.158 47.2734 264.632 46.9539 265.225 46.7258C265.824 46.4977 266.517 46.3836 267.304 46.3836C268.137 46.3836 268.844 46.5119 269.426 46.7686C270.008 47.0195 270.45 47.3846 270.752 47.8637C271.06 48.3371 271.214 48.9075 271.214 49.5748V56H268.741V54.7509H268.596C268.436 55.0418 268.222 55.2927 267.954 55.5038C267.692 55.7091 267.384 55.8688 267.03 55.9829C266.682 56.0913 266.303 56.1454 265.892 56.1454ZM273.644 56V46.5889H276.142V48.0605H276.296C276.444 47.5414 276.724 47.1422 277.134 46.8627C277.545 46.5775 278.053 46.4349 278.657 46.4349C278.828 46.4349 278.994 46.4463 279.153 46.4691C279.319 46.4919 279.464 46.5205 279.59 46.5547V48.7363C279.402 48.6907 279.213 48.6565 279.025 48.6337C278.837 48.6052 278.643 48.5909 278.443 48.5909C277.976 48.5909 277.568 48.6765 277.22 48.8476C276.872 49.0187 276.604 49.2639 276.416 49.5833C276.233 49.9028 276.142 50.2849 276.142 50.7298V56H273.644ZM284.372 56.154C283.591 56.154 282.915 55.9601 282.345 55.5722C281.774 55.1787 281.332 54.6197 281.019 53.8953C280.711 53.1653 280.557 52.3012 280.557 51.303V51.2859C280.557 50.2763 280.708 49.4094 281.01 48.685C281.318 47.9606 281.757 47.4045 282.328 47.0167C282.898 46.6288 283.579 46.4349 284.372 46.4349C284.806 46.4349 285.205 46.5034 285.57 46.6402C285.941 46.7714 286.263 46.9597 286.537 47.2049C286.816 47.4502 287.036 47.7468 287.196 48.0947H287.35V42.9956H289.848V56H287.35V54.537H287.196C287.03 54.8735 286.811 55.1616 286.537 55.4011C286.269 55.6407 285.952 55.826 285.587 55.9572C285.222 56.0884 284.817 56.154 284.372 56.154ZM285.228 54.0836C285.667 54.0836 286.046 53.9723 286.366 53.7499C286.691 53.5275 286.939 53.208 287.11 52.7917C287.287 52.3753 287.375 51.8791 287.375 51.303V51.2859C287.375 50.7098 287.287 50.2165 287.11 49.8058C286.933 49.3894 286.685 49.07 286.366 48.8476C286.046 48.6194 285.667 48.5054 285.228 48.5054C284.789 48.5054 284.409 48.6194 284.09 48.8476C283.771 49.07 283.525 49.3894 283.354 49.8058C283.183 50.2165 283.098 50.7098 283.098 51.2859V51.303C283.098 51.8791 283.183 52.3753 283.354 52.7917C283.525 53.208 283.771 53.5275 284.09 53.7499C284.409 53.9723 284.789 54.0836 285.228 54.0836Z" fill="#ACFFFF"/>
<g style="mix-blend-mode:plus-lighter">
<path d="M98.5304 37V23.5619H103.801C105.136 23.5619 106.272 23.8227 107.21 24.3442C108.153 24.8595 108.874 25.6107 109.37 26.5978C109.867 27.585 110.115 28.7801 110.115 30.1832V30.2018C110.115 31.6484 109.867 32.8776 109.37 33.8896C108.88 34.9016 108.166 35.6745 107.228 36.2084C106.291 36.7361 105.149 37 103.801 37H98.5304ZM101.343 34.6812H103.373C104.205 34.6812 104.909 34.5135 105.487 34.1783C106.064 33.8368 106.502 33.337 106.8 32.679C107.098 32.0147 107.247 31.2045 107.247 30.2484V30.2297C107.247 29.3047 107.095 28.5193 106.791 27.8737C106.486 27.2218 106.043 26.7282 105.459 26.393C104.882 26.0515 104.186 25.8808 103.373 25.8808H101.343V34.6812ZM116.951 37.2142C115.914 37.2142 115.023 37 114.278 36.5716C113.533 36.1432 112.959 35.5317 112.555 34.737C112.152 33.9424 111.95 32.9987 111.95 31.906V31.8967C111.95 30.8102 112.148 29.8697 112.546 29.075C112.949 28.2741 113.517 27.6564 114.25 27.2218C114.983 26.781 115.846 26.5606 116.839 26.5606C117.832 26.5606 118.692 26.7748 119.419 27.2031C120.145 27.6253 120.704 28.2213 121.095 28.9912C121.486 29.761 121.681 30.6612 121.681 31.6918V32.53H113.309V30.8257H120.378L119.102 32.4368V31.3566C119.102 30.7481 119.009 30.2391 118.823 29.8293C118.636 29.4195 118.376 29.1122 118.04 28.9074C117.711 28.6963 117.326 28.5907 116.885 28.5907C116.451 28.5907 116.063 28.6994 115.721 28.9167C115.386 29.1278 115.122 29.4413 114.93 29.8572C114.737 30.267 114.641 30.7668 114.641 31.3566V32.4461C114.641 33.0235 114.734 33.5171 114.921 33.9268C115.113 34.3304 115.386 34.6408 115.74 34.8581C116.1 35.0754 116.522 35.184 117.007 35.184C117.404 35.184 117.742 35.1251 118.022 35.0071C118.301 34.8891 118.525 34.7495 118.692 34.588C118.866 34.4266 118.984 34.2807 119.046 34.1503L119.074 34.0945L121.598 34.0852L121.579 34.1876C121.498 34.5104 121.352 34.8488 121.141 35.2027C120.93 35.5565 120.638 35.8856 120.266 36.1898C119.9 36.494 119.44 36.7424 118.888 36.9348C118.341 37.1211 117.696 37.2142 116.951 37.2142ZM124.084 37V23.5619H126.897V34.6812H132.866V37H124.084ZM137.103 37V26.216H136.954L133.639 28.5069V25.9739L137.112 23.5619H139.916V37H137.103ZM146.993 37V25.8808H142.97V23.5619H153.819V25.8808H149.806V37H146.993ZM156.045 37V22.9007H158.764V28.3765H158.913C159.155 27.8116 159.525 27.3677 160.021 27.0448C160.518 26.722 161.136 26.5606 161.875 26.5606C162.632 26.5606 163.268 26.7127 163.784 27.0169C164.305 27.3149 164.699 27.7526 164.966 28.33C165.24 28.9011 165.376 29.5934 165.376 30.4067V37H162.657V31.0213C162.657 30.2949 162.502 29.7455 162.191 29.373C161.887 29.0005 161.415 28.8142 160.776 28.8142C160.36 28.8142 160 28.9105 159.695 29.1029C159.397 29.2892 159.168 29.553 159.006 29.8945C158.845 30.2297 158.764 30.6302 158.764 31.0958V37H156.045ZM167.946 37V26.7748H170.666V37H167.946ZM169.315 25.2289C168.899 25.2289 168.539 25.083 168.235 24.7912C167.937 24.4994 167.788 24.1455 167.788 23.7296C167.788 23.3136 167.937 22.9597 168.235 22.6679C168.539 22.3761 168.899 22.2302 169.315 22.2302C169.731 22.2302 170.088 22.3761 170.386 22.6679C170.684 22.9597 170.833 23.3136 170.833 23.7296C170.833 24.1455 170.684 24.4994 170.386 24.7912C170.088 25.083 169.731 25.2289 169.315 25.2289Z" fill="#0C82F8"/>
<path d="M178.395 37.3353C177.321 37.3353 176.39 37.1738 175.601 36.851C174.813 36.5282 174.192 36.0749 173.739 35.4914C173.292 34.9016 173.04 34.2093 172.985 33.4147L172.975 33.2656H175.685L175.695 33.3588C175.732 33.694 175.868 33.9889 176.104 34.2435C176.346 34.4918 176.669 34.6874 177.073 34.8302C177.476 34.973 177.939 35.0444 178.46 35.0444C178.963 35.0444 179.404 34.973 179.783 34.8302C180.161 34.6812 180.456 34.4732 180.667 34.2062C180.885 33.9393 180.993 33.635 180.993 33.2936V33.2843C180.993 32.8435 180.813 32.4896 180.453 32.2226C180.099 31.9557 179.506 31.7384 178.675 31.5708L177.25 31.2821C175.865 30.9965 174.853 30.5309 174.214 29.8852C173.574 29.2333 173.255 28.3983 173.255 27.3801V27.3708C173.261 26.5389 173.481 25.8125 173.916 25.1916C174.357 24.5708 174.962 24.0896 175.732 23.7482C176.502 23.4005 177.383 23.2267 178.377 23.2267C179.42 23.2267 180.317 23.3974 181.068 23.7389C181.819 24.0741 182.403 24.5366 182.819 25.1264C183.241 25.71 183.48 26.3805 183.536 27.138L183.545 27.259H180.9L180.882 27.1473C180.832 26.8182 180.699 26.5326 180.481 26.2905C180.264 26.0484 179.975 25.859 179.615 25.7224C179.261 25.5797 178.848 25.5114 178.377 25.5176C177.917 25.5176 177.514 25.5859 177.166 25.7224C176.818 25.8528 176.548 26.0422 176.356 26.2905C176.163 26.5326 176.067 26.8213 176.067 27.1566V27.1659C176.067 27.6005 176.241 27.9544 176.589 28.2275C176.942 28.5007 177.517 28.718 178.311 28.8794L179.727 29.1774C180.677 29.3699 181.45 29.6306 182.046 29.9597C182.648 30.2887 183.092 30.7016 183.377 31.1983C183.663 31.6949 183.806 32.2909 183.806 32.9863V32.9956C183.806 33.8834 183.589 34.6532 183.154 35.3051C182.719 35.9508 182.095 36.4506 181.282 36.8044C180.475 37.1583 179.513 37.3353 178.395 37.3353ZM187.363 40.576C187.189 40.576 187.016 40.5729 186.842 40.5667C186.668 40.5605 186.5 40.5512 186.339 40.5388V38.4993C186.432 38.5117 186.544 38.518 186.674 38.518C186.804 38.5242 186.935 38.5273 187.065 38.5273C187.543 38.5273 187.922 38.4341 188.201 38.2479C188.481 38.0678 188.667 37.7823 188.76 37.3911L188.863 37L185.268 26.7748H188.257L190.688 35.5752L190.092 34.5508H190.865L190.297 35.5752L192.727 26.7748H195.596L192.113 37.0093C191.815 37.9033 191.455 38.6111 191.032 39.1326C190.61 39.6541 190.101 40.0235 189.505 40.2408C188.909 40.4643 188.195 40.576 187.363 40.576ZM201.211 37.2142C200.28 37.2142 199.488 37.0869 198.836 36.8324C198.184 36.5716 197.672 36.2146 197.3 35.7614C196.933 35.302 196.716 34.7805 196.648 34.1969V34.1503H199.311L199.33 34.1876C199.442 34.5104 199.653 34.7774 199.963 34.9885C200.274 35.1934 200.696 35.2958 201.23 35.2958C201.584 35.2958 201.888 35.2492 202.142 35.1561C202.403 35.063 202.605 34.9326 202.748 34.765C202.897 34.5974 202.971 34.4018 202.971 34.1783V34.1597C202.971 33.8865 202.859 33.663 202.636 33.4892C202.419 33.3091 202.052 33.1601 201.537 33.0421L199.823 32.679C199.178 32.5424 198.638 32.3437 198.203 32.0829C197.768 31.816 197.443 31.49 197.225 31.1051C197.008 30.7202 196.899 30.2732 196.899 29.7641V29.7548C196.899 29.1091 197.076 28.5473 197.43 28.0692C197.79 27.5912 198.29 27.2218 198.929 26.961C199.569 26.6941 200.314 26.5606 201.164 26.5606C202.058 26.5606 202.819 26.6972 203.446 26.9703C204.073 27.2373 204.554 27.5974 204.89 28.0506C205.231 28.5038 205.417 29.0067 205.448 29.5592L205.458 29.6058H202.925L202.915 29.5592C202.847 29.2674 202.664 29.016 202.366 28.8049C202.074 28.5876 201.674 28.479 201.164 28.479C200.848 28.479 200.568 28.5255 200.326 28.6187C200.09 28.7056 199.901 28.8329 199.758 29.0005C199.622 29.1681 199.553 29.3637 199.553 29.5872V29.6058C199.553 29.7858 199.6 29.9442 199.693 30.0807C199.786 30.2111 199.938 30.3291 200.149 30.4346C200.36 30.534 200.64 30.624 200.988 30.7047L202.692 31.0586C203.722 31.2821 204.48 31.6173 204.964 32.0643C205.448 32.5113 205.69 33.1104 205.69 33.8617V33.8803C205.69 34.5508 205.498 35.1375 205.113 35.6404C204.734 36.1432 204.207 36.5313 203.53 36.8044C202.859 37.0776 202.086 37.2142 201.211 37.2142ZM212.032 37.0559C210.797 37.0559 209.906 36.8355 209.36 36.3947C208.819 35.9539 208.549 35.2337 208.549 34.2342V28.8235H206.985V26.7748H208.549V24.3256H211.297V26.7748H213.383V28.8235H211.297V33.6382C211.297 34.0976 211.399 34.4328 211.604 34.6439C211.815 34.855 212.15 34.9605 212.61 34.9605C212.777 34.9605 212.917 34.9574 213.029 34.9512C213.14 34.945 213.258 34.9357 213.383 34.9233V36.9348C213.215 36.9659 213.013 36.9938 212.777 37.0186C212.541 37.0435 212.293 37.0559 212.032 37.0559ZM220.004 37.2142C218.967 37.2142 218.076 37 217.331 36.5716C216.586 36.1432 216.012 35.5317 215.608 34.737C215.205 33.9424 215.003 32.9987 215.003 31.906V31.8967C215.003 30.8102 215.202 29.8697 215.599 29.075C216.003 28.2741 216.571 27.6564 217.303 27.2218C218.036 26.781 218.899 26.5606 219.892 26.5606C220.885 26.5606 221.745 26.7748 222.472 27.2031C223.198 27.6253 223.757 28.2213 224.148 28.9912C224.539 29.761 224.735 30.6612 224.735 31.6918V32.53H216.363V30.8257H223.431L222.155 32.4368V31.3566C222.155 30.7481 222.062 30.2391 221.876 29.8293C221.689 29.4195 221.429 29.1122 221.093 28.9074C220.764 28.6963 220.379 28.5907 219.939 28.5907C219.504 28.5907 219.116 28.6994 218.775 28.9167C218.439 29.1278 218.175 29.4413 217.983 29.8572C217.791 30.267 217.694 30.7668 217.694 31.3566V32.4461C217.694 33.0235 217.787 33.5171 217.974 33.9268C218.166 34.3304 218.439 34.6408 218.793 34.8581C219.153 35.0754 219.575 35.184 220.06 35.184C220.457 35.184 220.795 35.1251 221.075 35.0071C221.354 34.8891 221.578 34.7495 221.745 34.588C221.919 34.4266 222.037 34.2807 222.099 34.1503L222.127 34.0945L224.651 34.0852L224.632 34.1876C224.552 34.5104 224.406 34.8488 224.195 35.2027C223.983 35.5565 223.692 35.8856 223.319 36.1898C222.953 36.494 222.493 36.7424 221.941 36.9348C221.395 37.1211 220.749 37.2142 220.004 37.2142ZM226.877 37V26.7748H229.596V28.3858H229.754C229.965 27.8085 230.322 27.3615 230.825 27.0448C231.328 26.722 231.915 26.5606 232.585 26.5606C233.051 26.5606 233.47 26.6351 233.842 26.7841C234.221 26.9331 234.544 27.1504 234.811 27.436C235.084 27.7216 235.289 28.063 235.426 28.4604H235.575C235.736 28.0754 235.966 27.7402 236.264 27.4546C236.568 27.169 236.925 26.9486 237.335 26.7934C237.751 26.6382 238.194 26.5606 238.666 26.5606C239.349 26.5606 239.936 26.7003 240.426 26.9796C240.923 27.259 241.305 27.6533 241.572 28.1623C241.845 28.6714 241.982 29.2799 241.982 29.9876V37H239.262V30.6674C239.262 30.2515 239.2 29.9069 239.076 29.6337C238.952 29.3606 238.766 29.1557 238.517 29.0191C238.269 28.8825 237.955 28.8142 237.577 28.8142C237.21 28.8142 236.891 28.898 236.618 29.0657C236.351 29.2271 236.143 29.4506 235.994 29.7362C235.851 30.0218 235.779 30.3508 235.779 30.7233V37H233.069V30.5464C233.069 30.1801 233.001 29.8697 232.865 29.6151C232.734 29.3544 232.542 29.1557 232.287 29.0191C232.039 28.8825 231.741 28.8142 231.393 28.8142C231.039 28.8142 230.726 28.9011 230.453 29.075C230.186 29.2488 229.975 29.4878 229.819 29.7921C229.67 30.0963 229.596 30.4439 229.596 30.8351V37H226.877Z" fill="white"/>
</g>
<rect x="1" width="80" height="80" rx="18.4323" fill="url(#paint0_linear_17_98)"/>
<g style="mix-blend-mode:plus-lighter">
<path d="M33.96 37.9454C32.3609 37.9747 31.9416 38.2872 30.7716 38.7364C29.9331 39.0587 28.958 39.2247 28.0415 39.3419C27.5052 39.4102 26.5887 39.3126 26.5887 39.3614C26.6179 39.9083 28.6558 41.1681 30.1963 41.7638C30.7521 41.9591 31.5516 42.1153 32.3707 42.086C34.0477 42.0274 35.0813 41.3243 35.9685 39.9278C36.8363 38.6095 36.9338 38.3849 35.5493 38.1505C34.9545 38.0138 34.4572 37.9356 33.96 37.9454Z" fill="#7C7C7C"/>
</g>
<g style="mix-blend-mode:plus-lighter">
<path d="M48.4783 37.9454C50.0773 37.9747 50.4966 38.2872 51.6666 38.7364C52.5149 39.0587 53.4802 39.2247 54.3968 39.3419C54.933 39.4102 55.8593 39.3126 55.8496 39.3614C55.8203 39.9083 53.7825 41.1681 52.2419 41.7638C51.6862 41.9591 50.8866 42.1153 50.0676 42.086C48.3905 42.0274 47.357 41.3243 46.4795 39.9278C45.6117 38.6095 45.5044 38.3849 46.889 38.1505C47.4837 38.0138 47.981 37.9356 48.4783 37.9454Z" fill="#7C7C7C"/>
</g>
<path style="mix-blend-mode:plus-lighter" d="M41.2337 55.2892C41.2337 47.9845 41.2337 41.5392 41.2337 41.4122C40.9315 41.7443 39.9077 42.4571 38.8351 43.0431C33.5212 45.5822 31.8344 45.924 29.2798 46.295C28.0805 46.3829 27.0177 46.1779 26.0817 45.8361C24.9506 45.3575 23.1468 43.59 22.552 42.2911L22.4155 43.131C22.2595 44.2931 22.0645 47.9454 22.2985 50.0158C23.0688 56.7638 25.2821 61.2951 28.8508 63.4045C29.2798 63.6584 30.3913 64.0392 31.3176 64.2541C32.2341 64.4689 33.5797 64.8693 34.2817 65.133C35.8028 65.7092 39.0887 67.3791 40.0637 68.0627C40.4635 68.3166 41.0777 68.6877 41.2337 68.7658C41.2337 68.5607 41.2337 65.7873 41.2337 55.2892Z" fill="#414141"/>
<path style="mix-blend-mode:plus-lighter" d="M65.2099 9.00005L64.6834 10.1524C64.5956 10.3477 64.3909 10.8555 64.0398 11.6856C63.1721 13.7852 62.6943 16.295 62.6845 18.7755C62.6845 20.0157 62.5675 21.2266 62.4018 21.8028C61.5632 24.6349 58.5991 27.5645 54.4357 29.6935C52.8757 30.4942 52.5832 30.7189 52.1931 31.4806C51.2766 33.2286 51.9396 35.7384 53.5777 36.7443C55.089 37.6622 56.6686 37.0861 59.5644 34.547C63.0648 31.4806 64.8199 29.2052 65.7364 26.5685C66.6334 23.9806 66.5652 21.7052 65.4634 17.2032C65.0539 15.5723 65.0149 14.6934 65.0051 12.711C64.9954 11.3438 65.0441 10.8751 65.1026 10.377C65.1416 9.96685 65.2099 9.00005 65.2099 9.00005Z" fill="#414141"/>
<path style="mix-blend-mode:plus-lighter" d="M17.1016 8.99999L17.6281 10.1523C17.7159 10.3476 17.9304 10.8555 18.2716 11.6855C19.1394 13.7852 19.6269 16.2949 19.6269 18.7754C19.6269 20.0156 19.7439 21.2266 19.9194 21.8028C20.758 24.6348 23.7221 27.5645 27.8855 29.6934C29.4455 30.4942 29.7283 30.7188 30.1183 31.4805C31.0349 33.2286 30.3718 35.7383 28.7338 36.7442C27.2322 37.6622 25.6429 37.086 22.747 34.5469C19.2564 31.4805 17.4916 29.2051 16.5751 26.5684C15.678 23.9805 15.7463 21.7051 16.8481 17.2031C17.2576 15.5723 17.2966 14.6934 17.3063 12.7109C17.3161 11.3437 17.2673 10.875 17.2186 10.3769C17.1698 9.96679 17.1016 8.99999 17.1016 8.99999Z" fill="#414141"/>
<path style="mix-blend-mode:plus-lighter" d="M58.3749 49.2443L55.4985 49.5568L55.5278 51.09C55.089 51.2658 54.6698 51.4904 54.2895 51.7541L53.2169 50.9631L51.5009 52.9943L52.3979 54.0197C52.2029 54.4396 52.0664 54.8791 51.9787 55.3381L50.5844 55.7189L50.8476 58.4631L52.2809 58.424C52.4564 58.8537 52.6807 59.2639 52.9634 59.6447L52.2614 60.924L54.2407 62.5842L55.401 61.5686C55.8495 61.7443 56.3176 61.8713 56.7953 61.9397L57.0488 63.3166L59.6229 63.0822L59.7399 61.5979C60.1885 61.4318 60.6077 61.1975 60.9977 60.924L62.2263 61.7248L63.8643 59.7033L62.8991 58.5803C63.0551 58.2189 63.1721 57.8381 63.2501 57.4475L64.6736 56.8713L64.4689 54.2248L62.9283 54.2053C62.7626 53.8146 62.5578 53.4338 62.3043 53.0822L63.0258 51.7443L60.9197 50.1525L59.8667 51.1486C59.4669 50.9826 59.0477 50.8654 58.6089 50.7873L58.3749 49.2443ZM57.6631 53.8928C59.0379 53.8928 60.1105 54.8889 60.1105 56.2658C60.1105 57.6525 59.0184 58.7853 57.6436 58.7853C56.2688 58.7853 55.1573 57.6623 55.1573 56.2853C55.1573 54.8986 56.2786 53.8928 57.6631 53.8928Z" fill="#414141"/>
<g style="mix-blend-mode:plus-lighter">
<path d="M57.6436 54.3713C57.3901 54.3713 57.1366 54.4201 56.9026 54.5178C56.6588 54.6252 56.4541 54.7619 56.2688 54.9475C56.0933 55.133 55.9471 55.3479 55.8496 55.5822C55.7521 55.8264 55.7033 56.0803 55.7033 56.3342C55.7033 56.5881 55.7521 56.842 55.8496 57.0861C55.9471 57.3205 56.0933 57.5354 56.2688 57.7209C56.4541 57.9065 56.6588 58.0432 56.9026 58.1408C57.1366 58.2483 57.3901 58.2971 57.6436 58.2971C57.8971 58.2971 58.1507 58.2483 58.3847 58.1408C58.6187 58.0432 58.8332 57.9065 59.0087 57.7209C59.1939 57.5354 59.3304 57.3205 59.4279 57.0861C59.5254 56.842 59.5742 56.5881 59.5742 56.3342C59.5742 56.0803 59.5254 55.8264 59.4279 55.5822C59.3304 55.3479 59.1939 55.133 59.0087 54.9475C58.8332 54.7619 58.6187 54.6252 58.3847 54.5178C58.1507 54.4201 57.8971 54.3713 57.6436 54.3713ZM57.5851 55.5041C57.7021 55.5041 57.8094 55.5236 57.9166 55.5627C58.0239 55.6115 58.1214 55.6799 58.1994 55.758C58.2774 55.8361 58.3457 55.9338 58.3847 56.0412C58.4334 56.1486 58.4529 56.2658 58.4529 56.3732C58.4529 56.4904 58.4334 56.6076 58.3847 56.715C58.3457 56.8225 58.2774 56.9201 58.1994 56.9982C58.1214 57.0764 58.0239 57.1447 57.9166 57.1936C57.8094 57.2326 57.7021 57.2522 57.5851 57.2522C57.4681 57.2522 57.3609 57.2326 57.2536 57.1936C57.1464 57.1447 57.0586 57.0764 56.9709 56.9982C56.8929 56.9201 56.8246 56.8225 56.7856 56.715C56.7466 56.6076 56.7173 56.4904 56.7173 56.3732C56.7173 56.2658 56.7466 56.1486 56.7856 56.0412C56.8343 55.9338 56.8929 55.8361 56.9709 55.758C57.0586 55.6799 57.1464 55.6115 57.2536 55.5627C57.3609 55.5236 57.4681 55.5041 57.5851 55.5041Z" fill="#7C7C7C"/>
</g>
<path style="mix-blend-mode:plus-lighter" d="M47.0547 46.9006L45.1046 47.3498L45.2509 48.4045C44.9584 48.5607 44.6951 48.7463 44.4514 48.9611L43.6518 48.5119L42.6378 50.0451L43.3398 50.6799C43.2423 50.9826 43.1838 51.2951 43.1643 51.6174L42.238 51.9982L42.6378 53.8635L43.6226 53.717C43.7786 54.0002 43.9736 54.2639 44.1979 54.4982L43.8176 55.4357L45.3192 56.4123L46.0309 55.6115C46.3527 55.6994 46.6842 55.7482 47.0157 55.758L47.3082 56.6857L49.0633 56.3049L49.0145 55.2795C49.3071 55.1232 49.5801 54.9279 49.8238 54.7131L50.7404 55.1623L51.6959 53.6291L50.9354 52.9455C51.0134 52.6786 51.0654 52.4051 51.0914 52.1252L52.0177 51.6174L51.6569 49.8107L50.6038 49.9279C50.4543 49.6675 50.2788 49.4266 50.0773 49.2052L50.4576 48.2287L48.8878 47.3009L48.2345 48.0822C47.9485 48.0041 47.6527 47.9552 47.3472 47.9357L47.0547 46.9006ZM46.9475 50.1525C47.8932 50.0451 48.7123 50.6408 48.8293 51.5881C48.9365 52.5353 48.2833 53.4045 47.3375 53.5217C46.3917 53.6389 45.5337 52.9553 45.4167 52.008C45.2997 51.0607 46.0017 50.2697 46.9475 50.1525Z" fill="#414141"/>
<g style="mix-blend-mode:plus-lighter">
<path d="M46.9767 50.4845C46.8012 50.5041 46.6257 50.5627 46.4794 50.6506C46.3234 50.7385 46.1869 50.8556 46.0797 50.9924C45.9724 51.1291 45.8944 51.2951 45.8457 51.4611C45.7969 51.6369 45.7872 51.8127 45.8067 51.9885C45.8262 52.174 45.8847 52.34 45.9627 52.4963C46.0504 52.6525 46.1674 52.7892 46.3137 52.8967C46.4502 53.0138 46.6062 53.092 46.7719 53.1408C46.9474 53.1896 47.123 53.1994 47.2985 53.1799C47.474 53.1603 47.6397 53.1017 47.7957 53.0138C47.9517 52.926 48.0882 52.8088 48.1955 52.6721C48.3028 52.5353 48.3808 52.3693 48.4295 52.2033C48.4783 52.0275 48.488 51.8517 48.4685 51.6662C48.449 51.4904 48.3905 51.3244 48.3027 51.1681C48.215 51.0119 48.1077 50.8752 47.9615 50.7677C47.825 50.6506 47.669 50.5724 47.4935 50.5236C47.3277 50.4748 47.1522 50.465 46.9767 50.4845ZM47.0352 51.2658C47.1132 51.2528 47.188 51.2593 47.2595 51.2853C47.3375 51.3049 47.409 51.3407 47.474 51.3927C47.539 51.4383 47.591 51.4969 47.63 51.5685C47.669 51.6401 47.6917 51.715 47.6982 51.7931C47.7112 51.8713 47.7047 51.9494 47.6787 52.0275C47.6592 52.1056 47.6235 52.1773 47.5715 52.2424C47.526 52.3075 47.4675 52.3596 47.396 52.3986C47.331 52.4377 47.2562 52.4605 47.1717 52.467C47.0937 52.48 47.0157 52.4735 46.9377 52.4474C46.8662 52.4279 46.7979 52.3921 46.7329 52.34C46.6679 52.2944 46.6159 52.2359 46.5769 52.1642C46.5379 52.0926 46.5152 52.0178 46.5087 51.9396C46.4957 51.8615 46.5022 51.7834 46.5282 51.7052C46.5477 51.6271 46.5834 51.5555 46.6354 51.4904C46.6809 51.4253 46.7394 51.3732 46.8109 51.3342C46.8759 51.2951 46.9507 51.2723 47.0352 51.2658Z" fill="#7C7C7C"/>
</g>
<path style="mix-blend-mode:plus-lighter" d="M46.9377 56.7834L45.6702 56.6076L45.5142 57.2716C45.3062 57.2977 45.1047 57.3465 44.9097 57.4181L44.5391 56.9689L43.5836 57.6525L43.8566 58.1896C43.7266 58.3524 43.6194 58.5281 43.5348 58.717L42.8913 58.7267L42.7158 59.9377L43.3398 60.0744C43.3658 60.2827 43.4178 60.4813 43.4958 60.6701L43.0571 61.1486L43.7299 62.0763L44.3441 61.7541C44.5131 61.8843 44.6984 61.9884 44.8999 62.0666L44.8609 62.6916L45.9919 62.8674L46.2065 62.2424C46.4145 62.2163 46.616 62.1642 46.811 62.0861L47.2595 62.5646L48.176 61.8615L47.8835 61.2853C47.994 61.1421 48.085 60.9891 48.1565 60.8263L48.8293 60.7384L49.0243 59.5763L48.371 59.4005C48.3385 59.2117 48.2865 59.0295 48.215 58.8537L48.6733 58.3556L47.942 57.4377L47.3765 57.7599C47.2205 57.6427 47.0547 57.5451 46.8792 57.467L46.9377 56.7834ZM46.1284 58.7072C46.7232 58.8537 47.0742 59.4005 46.928 59.9865C46.7817 60.5822 46.1869 60.9533 45.6019 60.8068C45.0072 60.6603 44.6464 60.0548 44.7926 59.4689C44.9389 58.8732 45.5337 58.5607 46.1284 58.7072Z" fill="#414141"/>
<g style="mix-blend-mode:plus-lighter">
<path d="M46.07 58.9025C45.9627 58.883 45.8554 58.8732 45.7384 58.8928C45.6312 58.9123 45.5239 58.9514 45.4264 59.01C45.3289 59.0685 45.2412 59.1467 45.1729 59.2346C45.1047 59.3225 45.0559 59.4299 45.0267 59.5373C45.0072 59.6545 44.9974 59.7717 45.0169 59.8791C45.0267 59.9963 45.0657 60.1037 45.1242 60.2014C45.1827 60.299 45.2607 60.3771 45.3484 60.4455C45.4459 60.5139 45.5434 60.5627 45.6507 60.592C45.7677 60.6213 45.8749 60.6213 45.992 60.6115C46.0992 60.592 46.2065 60.5529 46.304 60.4943C46.4015 60.4357 46.4892 60.3576 46.5575 60.26C46.6257 60.1721 46.6745 60.0646 46.694 59.9572C46.7232 59.8498 46.733 59.7326 46.7135 59.6154C46.694 59.508 46.6647 59.4006 46.6062 59.3029C46.5477 59.2053 46.4697 59.1174 46.3722 59.049C46.2845 58.9807 46.187 58.9318 46.07 58.9025ZM45.9335 59.3811C45.979 59.3941 46.0245 59.4169 46.07 59.4494C46.109 59.482 46.1415 59.5178 46.1675 59.5568C46.1935 59.6024 46.2097 59.6512 46.2162 59.7033C46.2227 59.7554 46.2195 59.8075 46.2065 59.8596C46.1935 59.9051 46.174 59.9507 46.148 59.9963C46.1155 60.0354 46.0765 60.0679 46.031 60.0939C45.992 60.12 45.9464 60.1363 45.8944 60.1428C45.8424 60.1558 45.7904 60.1558 45.7384 60.1428C45.6929 60.1298 45.6507 60.107 45.6117 60.0744C45.5662 60.0419 45.5304 60.0061 45.5044 59.967C45.4784 59.9214 45.4622 59.8726 45.4557 59.8205C45.4492 59.7684 45.4524 59.7196 45.4654 59.674C45.4784 59.6219 45.4979 59.5731 45.5239 59.5275C45.5564 59.4885 45.5954 59.4559 45.6409 59.4299C45.6864 59.4038 45.7319 59.3876 45.7774 59.3811C45.8294 59.3745 45.8814 59.3745 45.9335 59.3811Z" fill="#7C7C7C"/>
</g>
</g>
<defs>
<filter id="filter0_d_17_98" x="0" y="0" width="290.848" height="82" filterUnits="userSpaceOnUse" color-interpolation-filters="sRGB">
<feFlood flood-opacity="0" result="BackgroundImageFix"/>
<feColorMatrix in="SourceAlpha" type="matrix" values="0 0 0 0 0 0 0 0 0 0 0 0 0 0 0 0 0 0 127 0" result="hardAlpha"/>
<feOffset dy="1"/>
<feGaussianBlur stdDeviation="0.5"/>
<feComposite in2="hardAlpha" operator="out"/>
<feColorMatrix type="matrix" values="0 0 0 0 0 0 0 0 0 0 0 0 0 0 0 0 0 0 0.2 0"/>
<feBlend mode="normal" in2="BackgroundImageFix" result="effect1_dropShadow_17_98"/>
<feBlend mode="normal" in="SourceGraphic" in2="effect1_dropShadow_17_98" result="shape"/>
</filter>
<linearGradient id="paint0_linear_17_98" x1="41" y1="0" x2="41" y2="80" gradientUnits="userSpaceOnUse">
<stop stop-color="#55C4FA"/>
<stop offset="1" stop-color="#0A80F8"/>
</linearGradient>
</defs>
</svg>
